<svg id="logo" xmlns="http://www.w3.org/2000/svg" width="120.88" height="29.28" viewBox="0 0 120.88 29.28">
  <defs>
    <style>
      .cls-1 {
        fill: #4bc18b;
      }
    </style>
  </defs>
  <path id="logo-2" data-name="logo" class="cls-1" d="M2.72,40V12H7.84V23.64H20.4V12h5.12V40H20.4V27.8H7.84V40Zm34.96.48a9.386,9.386,0,0,1-4.2-.82,5.674,5.674,0,0,1-2.44-2.18,5.808,5.808,0,0,1-.8-3A5.459,5.459,0,0,1,32.4,30q2.16-1.72,6.48-1.72h5.04V27.8a3.673,3.673,0,0,0-1.16-3,4.366,4.366,0,0,0-2.88-.96,4.948,4.948,0,0,0-2.72.74,3.186,3.186,0,0,0-1.44,2.18h-5A6.978,6.978,0,0,1,32.18,23a8.174,8.174,0,0,1,3.26-2.46,11.232,11.232,0,0,1,4.48-.86A9.842,9.842,0,0,1,46.6,21.8a7.522,7.522,0,0,1,2.44,6V40H44.68l-.48-3.2a7.4,7.4,0,0,1-2.46,2.64A7.253,7.253,0,0,1,37.68,40.48Zm1.16-4a4.238,4.238,0,0,0,3.42-1.44,6.993,6.993,0,0,0,1.54-3.56H39.44a4.547,4.547,0,0,0-2.92.74,2.29,2.29,0,0,0-.88,1.82,2.1,2.1,0,0,0,.88,1.8A3.856,3.856,0,0,0,38.84,36.48ZM53.92,40V20.16h4.56l.48,3.72a8.3,8.3,0,0,1,2.94-3.06,8.215,8.215,0,0,1,4.38-1.14v5.4H64.84a8.134,8.134,0,0,0-3,.52,4.041,4.041,0,0,0-2.06,1.8,7.15,7.15,0,0,0-.74,3.56V40Zm15.84,0V11.2h5.12V40ZM82.88,17.08a3.237,3.237,0,0,1-2.3-.84,2.776,2.776,0,0,1-.9-2.12,2.714,2.714,0,0,1,.9-2.1,3.636,3.636,0,0,1,4.6,0,2.714,2.714,0,0,1,.9,2.1,2.776,2.776,0,0,1-.9,2.12A3.237,3.237,0,0,1,82.88,17.08ZM80.32,40V20.16h5.12V40ZM99,40.48a11.663,11.663,0,0,1-4.64-.86,8.015,8.015,0,0,1-3.2-2.38,6.89,6.89,0,0,1-1.44-3.52h5.16a3.322,3.322,0,0,0,1.3,1.98,4.35,4.35,0,0,0,2.74.82,3.688,3.688,0,0,0,2.46-.68,2.027,2.027,0,0,0,.78-1.56,1.718,1.718,0,0,0-1.12-1.74,19.736,19.736,0,0,0-3.12-.9q-1.28-.28-2.6-.68a12,12,0,0,1-2.42-1.02,5.289,5.289,0,0,1-1.78-1.6,4.142,4.142,0,0,1-.68-2.42,5.624,5.624,0,0,1,2.1-4.44,8.792,8.792,0,0,1,5.9-1.8,8.887,8.887,0,0,1,5.62,1.64,6.647,6.647,0,0,1,2.5,4.52h-4.84q-.44-2.2-3.32-2.2a3.766,3.766,0,0,0-2.22.56,1.67,1.67,0,0,0-.78,1.4q0,.88,1.16,1.4a17.037,17.037,0,0,0,3.08.96q2.08.48,3.82,1.06a6.42,6.42,0,0,1,2.78,1.72A4.67,4.67,0,0,1,107.28,34a5.571,5.571,0,0,1-.96,3.32,6.632,6.632,0,0,1-2.88,2.32A10.812,10.812,0,0,1,99,40.48ZM120,40a7.715,7.715,0,0,1-5-1.52q-1.88-1.52-1.88-5.4V24.44h-3.4V20.16h3.4l.6-5.32h4.52v5.32h5.36v4.28h-5.36v8.68a2.548,2.548,0,0,0,.62,1.98,3.281,3.281,0,0,0,2.14.54h2.48V40Z" transform="translate(-2.72 -11.2)"/>
</svg>
